<?xml version="1.0" encoding="utf-8"?>
<!-- Generator: Adobe Illustrator 26.0.3, SVG Export Plug-In . SVG Version: 6.00 Build 0)  -->
<svg version="1.0" id="katman_1" xmlns="http://www.w3.org/2000/svg" xmlns:xlink="http://www.w3.org/1999/xlink" x="0px" y="0px"
	 viewBox="0 0 800 600" style="enable-background:new 0 0 800 600;" xml:space="preserve">
<style type="text/css">
	.st0{fill:#FFFFFF;}
	.st1{fill:#717074;}
	.st2{fill:url(#SVGID_1_);}
	.st3{fill:url(#SVGID_00000020365379188793754930000006694594113275468694_);}
	.st4{fill:url(#SVGID_00000176762780411586410560000015086923098621518783_);}
	.st5{fill:url(#SVGID_00000038402651704634337940000017582630010213706630_);}
	.st6{fill:url(#SVGID_00000083797520562049700590000007125660299544117149_);}
	.st7{fill:url(#SVGID_00000101076660231744046090000007420857128431300231_);}
</style>
<circle class="st0" cx="412" cy="208.4" r="134.3"/>
<path class="st1" d="M412,348.2c-77.2,0-139.9-62.7-139.9-139.9S334.8,68.7,412,68.7s139.6,62.7,139.6,139.6S488.9,348.2,412,348.2
	L412,348.2z M412,94.4c-62.9,0-114.2,51-114.2,114s51.3,114,114,114s114-51.3,114-114S474.7,94.4,412,94.4z"/>
<linearGradient id="SVGID_1_" gradientUnits="userSpaceOnUse" x1="389.574" y1="406.6923" x2="775.705" y2="406.6923" gradientTransform="matrix(1 0 0 -1 -57.7049 579.3522)">
	<stop  offset="0" style="stop-color:#0194D3"/>
	<stop  offset="1" style="stop-color:#006A91"/>
</linearGradient>
<path class="st2" d="M331.9,164.7h159.7v15.9H331.9V164.7z"/>
<linearGradient id="SVGID_00000116196125451709355660000017313287137353141675_" gradientUnits="userSpaceOnUse" x1="389.574" y1="430.2265" x2="775.705" y2="430.2265" gradientTransform="matrix(1 0 0 -1 -57.7049 579.3522)">
	<stop  offset="0" style="stop-color:#0194D3"/>
	<stop  offset="1" style="stop-color:#006A91"/>
</linearGradient>
<path style="fill:url(#SVGID_00000116196125451709355660000017313287137353141675_);" d="M331.9,141.2h159.7v15.9H331.9V141.2z"/>
<linearGradient id="SVGID_00000101100198838146030360000014050724831328484785_" gradientUnits="userSpaceOnUse" x1="389.574" y1="383.4225" x2="775.705" y2="383.4225" gradientTransform="matrix(1 0 0 -1 -57.7049 579.3522)">
	<stop  offset="0" style="stop-color:#F08C21"/>
	<stop  offset="1" style="stop-color:#9E313A"/>
</linearGradient>
<path style="fill:url(#SVGID_00000101100198838146030360000014050724831328484785_);" d="M331.9,188h159.7v15.9H331.9V188z"/>
<linearGradient id="SVGID_00000173147628535956788850000018352307210475710875_" gradientUnits="userSpaceOnUse" x1="389.574" y1="359.8882" x2="775.705" y2="359.8882" gradientTransform="matrix(1 0 0 -1 -57.7049 579.3522)">
	<stop  offset="2.000000e-03" style="stop-color:#0194D3"/>
	<stop  offset="1" style="stop-color:#006A91"/>
</linearGradient>
<path style="fill:url(#SVGID_00000173147628535956788850000018352307210475710875_);" d="M331.9,211.5h159.7v15.9H331.9V211.5z"/>
<linearGradient id="SVGID_00000057136430403502292310000010064964315520959673_" gradientUnits="userSpaceOnUse" x1="389.574" y1="336.6184" x2="775.705" y2="336.6184" gradientTransform="matrix(1 0 0 -1 -57.7049 579.3522)">
	<stop  offset="0" style="stop-color:#0194D3"/>
	<stop  offset="1" style="stop-color:#006A91"/>
</linearGradient>
<path style="fill:url(#SVGID_00000057136430403502292310000010064964315520959673_);" d="M331.9,234.8h159.7v15.9H331.9V234.8z"/>
<linearGradient id="SVGID_00000015333442055384367510000005589589549253397909_" gradientUnits="userSpaceOnUse" x1="389.574" y1="313.0842" x2="775.705" y2="313.0842" gradientTransform="matrix(1 0 0 -1 -57.7049 579.3522)">
	<stop  offset="0" style="stop-color:#0194D3"/>
	<stop  offset="1" style="stop-color:#006A91"/>
</linearGradient>
<path style="fill:url(#SVGID_00000015333442055384367510000005589589549253397909_);" d="M331.9,258.3h159.7v15.9H331.9V258.3z"/>
<g>
	<path class="st1" d="M240.4,433.1h-36.8v-11.6h85.7v11.6h-36.5v97.3h-12.4V433.1z M315.7,433.1v36H375v11.6h-59.2v37.8h65.6v11.6
		h-78V421.2h78.3v11.6h-65.8V433.1z M480.5,472.8c-2.9,5-6.9,9-12.2,12.2c-5.3,3.2-11.1,5-17.5,5.8l27.8,39.4h-14.3L436.8,491h-24.1
		v39.1h-12.4V421.2h44.2c7.4,0,14.3,1.6,20.4,4.5c6.1,2.9,10.8,7.1,14.5,12.4c3.4,5.3,5.3,11.4,5.3,18
		C484.7,462.5,483.4,468,480.5,472.8z M412.8,479.7h29.6c9,0,16.1-2.1,21.7-6.1c5.6-4.2,8.2-9.8,8.2-16.9c0-7.1-2.6-13-8.2-16.9
		c-5.6-4.2-12.7-6.1-21.7-6.1h-29.6C412.8,433.7,412.8,479.7,412.8,479.7z M503.5,421.5h12.4l67.7,88.6v-88.6H596v108.9h-12.4
		l-67.7-88.6v88.6h-12.4V421.5z"/>
</g>
</svg>
